# xmcd
#
# Track frame offsets:
#  150
#  22772
#  44466
#  59486
#  85680
#  117474
#  123185
#  129827
#  150214
#
# Disc length: 2501 seconds
#
# Revision: 0
# Processed by: cddbd v1.5.1PL2 Copyright (c) Steve Scherf et al.
# Submitted via: Collectorz.com_Music_Collector 6.9
#
DISCID=6209c309
DTITLE=Warren Zevon - Chestnut Cabaret, December 8th, 1990 [CD2]
DYEAR=1900
DGENRE=
TTITLE0=Hula Hula Boys
TTITLE1=Accidently Like A Martyr
TTITLE2=Rasberry Beret 
TTITLE3=Desperados Under The Eaves
TTITLE4=Boom Boom Mancini
TTITLE5=Band Intro and Conversation
TTITLE6=Winter Wonderland >
TTITLE7=Werewolves Of London
TTITLE8=Ain't That Pretty At Al
EXTD=
EXTT0=
EXTT1=
EXTT2=
EXTT3=
EXTT4=
EXTT5=
EXTT6=
EXTT7=
EXTT8=
PLAYORDER=
